# xmcd
#
# Track frame offsets:
# 150
# 14775
# 38780
# 62899
# 82763
# 101396
# 132132
# 144827
# 160614
# 174886
#
# Disc length: 2655 seconds
#
#
# Revision: 0
# Processed by: cddbd v1.5.2PL0 Copyright (c) Steve Scherf et al.
# Submitted via: Nero 7, 0, 8, 2 Featuring Annie Raines on Harmonica
#
DISCID=700a5d0a
DTITLE=Richard Smerin - Trouble With Me
DYEAR=2004
DGENRE=Blues
TTITLE0=Trouble With Me
TTITLE1=Love In Your Eyes
TTITLE2=Baltimore
TTITLE3=Only God Can Save Us Now
TTITLE4=Gerdi
TTITLE5=No Room In The Closet
TTITLE6=On The Road With Me
TTITLE7=She's An Angel
TTITLE8=One Good Woman
TTITLE9=How Long You'll Be Mine
EXTD=
EXTT0=
EXTT1=
EXTT2=
EXTT3=
EXTT4=
EXTT5=
EXTT6=
EXTT7=
EXTT8=
EXTT9=
PLAYORDER=
